<?xml version="1.0" standalone="no"?>
<!DOCTYPE svg PUBLIC "-//W3C//DTD SVG 20010904//EN"
 "http://www.w3.org/TR/2001/REC-SVG-20010904/DTD/svg10.dtd">
<svg version="1.0" xmlns="http://www.w3.org/2000/svg"
 width="1024.000000pt" height="1024.000000pt" viewBox="0 0 1024.000000 1024.000000"
 preserveAspectRatio="xMidYMid meet">
<metadata>
Created by potrace 1.14, written by Peter Selinger 2001-2017
</metadata>
<g transform="translate(0.000000,1024.000000) scale(0.100000,-0.100000)"
fill="#000000" stroke="none">
<path d="M4480 10080 l0 -160 -160 0 -160 0 0 -320 0 -320 160 0 160 0 0 -320
0 -320 -160 0 -160 0 0 -160 0 -160 160 0 160 0 0 -160 0 -160 -1440 0 -1440
0 0 -320 0 -320 -480 0 -480 0 0 -160 0 -160 -160 0 -160 0 0 -480 0 -480 160
0 160 0 0 -160 0 -160 480 0 480 0 0 -800 0 -800 160 0 160 0 0 -160 0 -160
160 0 160 0 0 -160 0 -160 2880 0 2880 0 0 160 0 160 160 0 160 0 0 160 0 160
160 0 160 0 0 800 0 800 480 0 480 0 0 160 0 160 160 0 160 0 0 480 0 480
-160 0 -160 0 0 160 0 160 -480 0 -480 0 0 320 0 320 -800 0 -800 0 0 160 0
160 160 0 160 0 0 160 0 160 -160 0 -160 0 0 320 0 320 -160 0 -160 0 0 160 0
160 -160 0 -160 0 0 -160 0 -160 -160 0 -160 0 0 -320 0 -320 160 0 160 0 0
-160 0 -160 160 0 160 0 0 -160 0 -160 -960 0 -960 0 0 160 0 160 160 0 160 0
0 160 0 160 160 0 160 0 0 480 0 480 -160 0 -160 0 0 160 0 160 -160 0 -160 0
0 160 0 160 -160 0 -160 0 0 -160z"/>
<path d="M2560 9760 l0 -160 -160 0 -160 0 0 -320 0 -320 160 0 160 0 0 -160
0 -160 160 0 160 0 0 -160 0 -160 160 0 160 0 0 160 0 160 160 0 160 0 0 320
0 320 -160 0 -160 0 0 160 0 160 -160 0 -160 0 0 160 0 160 -160 0 -160 0 0
-160z"/>
<path d="M0 2880 l0 -320 2240 0 2240 0 0 320 0 320 -2240 0 -2240 0 0 -320z"/>
<path d="M5760 2880 l0 -320 2240 0 2240 0 0 320 0 320 -2240 0 -2240 0 0
-320z"/>
<path d="M5120 2720 l0 -160 -160 0 -160 0 0 -480 0 -480 -160 0 -160 0 0
-480 0 -480 160 0 160 0 0 -160 0 -160 320 0 320 0 0 160 0 160 160 0 160 0 0
800 0 800 -160 0 -160 0 0 320 0 320 -160 0 -160 0 0 -160z"/>
<path d="M2560 1760 l0 -160 -160 0 -160 0 0 -320 0 -320 160 0 160 0 0 -160
0 -160 160 0 160 0 0 -160 0 -160 480 0 480 0 0 160 0 160 160 0 160 0 0 160
0 160 -160 0 -160 0 0 160 0 160 -320 0 -320 0 0 160 0 160 -160 0 -160 0 0
160 0 160 -160 0 -160 0 0 -160z"/>
<path d="M7360 1760 l0 -160 -160 0 -160 0 0 -160 0 -160 -320 0 -320 0 0
-160 0 -160 -160 0 -160 0 0 -160 0 -160 160 0 160 0 0 -160 0 -160 480 0 480
0 0 160 0 160 160 0 160 0 0 160 0 160 160 0 160 0 0 320 0 320 -160 0 -160 0
0 160 0 160 -160 0 -160 0 0 -160z"/>
</g>
</svg>
